<?xml version="1.0" standalone="no"?><!DOCTYPE svg PUBLIC "-//W3C//DTD SVG 1.1//EN" "http://www.w3.org/Graphics/SVG/1.1/DTD/svg11.dtd"><svg t="1651370088530" class="icon" viewBox="0 0 1024 1024" version="1.1" xmlns="http://www.w3.org/2000/svg" p-id="4918" xmlns:xlink="http://www.w3.org/1999/xlink" width="48" height="48"><defs><style type="text/css">@font-face { font-family: feedback-iconfont; src: url("//at.alicdn.com/t/font_1031158_u69w8yhxdu.woff2?t=1630033759944") format("woff2"), url("//at.alicdn.com/t/font_1031158_u69w8yhxdu.woff?t=1630033759944") format("woff"), url("//at.alicdn.com/t/font_1031158_u69w8yhxdu.ttf?t=1630033759944") format("truetype"); }
</style></defs><path d="M396.8 570.112l382.656 380.672c12.032 12.032 31.488 12.032 43.52 0 12.032-11.904 12.032-31.232 0-43.264L456.512 542.976l366.528-364.48c12.032-11.968 12.032-31.296 0-43.264s-31.488-11.968-43.52 0l-382.72 380.736C385.024 526.976 380.736 554.112 396.8 570.112zM222.4 128 222.272 128c-17.728 0-32 14.336-32 32l0 768c0 17.728 14.272 32 32 32l0.128 0c17.728 0 32-14.272 32-32l0-768C254.4 142.336 240.128 128 222.4 128z" p-id="4919" fill="#178fd9"></path></svg>