<?xml version="1.0" standalone="no"?><!DOCTYPE svg PUBLIC "-//W3C//DTD SVG 1.1//EN" "http://www.w3.org/Graphics/SVG/1.1/DTD/svg11.dtd"><svg t="1651703395552" class="icon" viewBox="0 0 1024 1024" version="1.1" xmlns="http://www.w3.org/2000/svg" p-id="2203" width="32" height="32" xmlns:xlink="http://www.w3.org/1999/xlink"><defs><style type="text/css">@font-face { font-family: feedback-iconfont; src: url("//at.alicdn.com/t/font_1031158_u69w8yhxdu.woff2?t=1630033759944") format("woff2"), url("//at.alicdn.com/t/font_1031158_u69w8yhxdu.woff?t=1630033759944") format("woff"), url("//at.alicdn.com/t/font_1031158_u69w8yhxdu.ttf?t=1630033759944") format("truetype"); }
</style></defs><path d="M202.453333 981.333333a85.333333 85.333333 0 0 1-85.162666-79.829333l-31.658667-490.666667a85.333333 85.333333 0 0 1 79.658667-90.666666l5.546666-0.170667H303.36a42.666667 42.666667 0 0 0 41.088-31.274667L393.685333 111.36a93.610667 93.610667 0 0 1 123.434667-62.464 123.477333 123.477333 0 0 1 77.653333 137.514667L570.453333 320h240.426667a128 128 0 0 1 126.890667 144.853333l-44.032 331.264A213.333333 213.333333 0 0 1 682.282667 981.333333H202.453333zM256 362.666667H169.429333l-1.365333 0.085333a42.666667 42.666667 0 0 0-39.893333 40.362667l0.042666 4.949333 31.658667 490.666667a42.666667 42.666667 0 0 0 37.845333 39.68l4.736 0.256H256V362.666667z m180.608-245.205334l-1.792 5.290667-49.194667 177.408a85.333333 85.333333 0 0 1-75.52 62.250667L303.36 362.666667H298.666667V938.666667h383.573333a170.666667 170.666667 0 0 0 167.808-139.52l1.408-8.661334 43.989333-331.264a85.333333 85.333333 0 0 0-78.208-96.341333l-6.4-0.213333H570.453333a42.666667 42.666667 0 0 1-42.581333-45.397334l0.597333-4.906666 24.32-133.632a80.810667 80.810667 0 0 0-50.816-90.026667l-4.48-1.450667a50.944 50.944 0 0 0-60.928 30.208z" p-id="2204" fill="#aaaaaa"></path></svg>